# xmcd
#
# Track frame offsets:
#	150
#	14670
#	28514
#	39039
#	56669
#	75250
#	88926
#	109751
#	120788
#	136051
#	149784
#	167350
#	182869
#
# Disc length: 2665 seconds
#
# Revision: 0
# Processed by: cddbd v1.5.2PL0 Copyright (c) Steve Scherf et al.
# Submitted via: dBpowerAMP V4.0
#
DISCID=9e0a670d
DTITLE=Windsor Knotts - Forgotten...But Not Gone
DYEAR=2011
DGENRE=Country
TTITLE0=Soldier's Joy
TTITLE1=Dad
TTITLE2=You Tried To Ruin My Name
TTITLE3=I Can't Sleep
TTITLE4=Lorena
TTITLE5=A Tale Of Two Vertebrates
TTITLE6=The Well-Dressed Ghost of Ragtag Holler
TTITLE7=The Giant Jazz Hands Jesus
TTITLE8=One Less Lesson Learned
TTITLE9=The Longing Song
TTITLE10=Pastures of Plenty
TTITLE11=Be Kind To A Man When He's Down
TTITLE12=Hard Times Come Again No More
EXTD=
EXTT0=
EXTT1=
EXTT2=
EXTT3=
EXTT4=
EXTT5=
EXTT6=
EXTT7=
EXTT8=
EXTT9=
EXTT10=
EXTT11=
EXTT12=
PLAYORDER=
